<?xml version="1.0" ?>
<!DOCTYPE svg  PUBLIC '-//W3C//DTD SVG 1.1//EN'  'http://www.w3.org/Graphics/SVG/1.1/DTD/svg11.dtd'>
<!-- Uploaded to: SVG Repo, www.svgrepo.com, Generator: SVG Repo Mixer Tools -->
<svg fill="#000000" width="800px" height="800px" viewBox="0 0 512 512" version="1.1" xml:space="preserve" xmlns="http://www.w3.org/2000/svg" xmlns:xlink="http://www.w3.org/1999/xlink">
<g id="_x34_62_x2C__Design_x2C__layout_x2C__page_x2C__sketch_x2C__sketching">
<g>
<path d="M391.767,26.002H102.942v297.659l96.778,96.798h192.047V26.002z     M41.136,273.322l9.097,203.596l203.579,9.081L41.136,273.322z M92.364,369.954l2.762,62.053l62.055,2.764L92.364,369.954z     M87.265,436.021l-3.422-76.102c-0.084-2.204,1.643-4.112,3.864-4.212c1.169-0.032,2.253,0.429,3.011,1.186l79.522,79.49    c1.579,1.579,1.579,4.146,0,5.725c-0.902,0.922-2.137,1.316-3.338,1.151l-75.788-3.388    C89.009,439.805,87.346,438.094,87.265,436.021z M470.864,56.666h-54.222v347.572h54.222v-14.675h-23.229    c-2.235,0-4.047-1.81-4.047-4.046c0-2.238,1.812-4.048,4.047-4.048h23.229v-12.831h-11.631c-2.222,0-4.032-1.811-4.032-4.048    s1.811-4.046,4.032-4.046h11.631v-12.076h-23.229c-2.235,0-4.047-1.809-4.047-4.046s1.812-4.048,4.047-4.048h23.229v-12.831    h-11.631c-2.222,0-4.032-1.81-4.032-4.047s1.811-4.047,4.032-4.047h11.631v-12.075h-23.229c-2.235,0-4.047-1.81-4.047-4.047    s1.812-4.047,4.047-4.047h23.229V286.45h-11.631c-2.222,0-4.032-1.81-4.032-4.048c0-2.236,1.811-4.046,4.032-4.046h11.631v-12.075    h-23.229c-2.235,0-4.047-1.81-4.047-4.047s1.812-4.047,4.047-4.047h23.229v-12.832h-11.631c-2.222,0-4.032-1.842-4.032-4.047    c0-2.236,1.811-4.047,4.032-4.047h11.631v-12.074h-23.229c-2.235,0-4.047-1.811-4.047-4.047c0-2.238,1.812-4.047,4.047-4.047    h23.229v-12.832h-11.631c-2.222,0-4.032-1.842-4.032-4.047c0-2.237,1.811-4.047,4.032-4.047h11.631v-12.075h-23.229    c-2.235,0-4.047-1.81-4.047-4.046c0-2.238,1.812-4.048,4.047-4.048h23.229v-12.864h-11.631c-2.222,0-4.032-1.81-4.032-4.047    c0-2.204,1.811-4.047,4.032-4.047h11.631V143h-23.229c-2.235,0-4.047-1.844-4.047-4.048c0-2.237,1.812-4.046,4.047-4.046h23.229    v-12.865h-11.631c-2.222,0-4.032-1.81-4.032-4.047c0-2.205,1.811-4.047,4.032-4.047h11.631v-12.043h-23.229    c-2.235,0-4.047-1.842-4.047-4.046c0-2.237,1.812-4.048,4.047-4.048h23.229V80.947h-11.631c-2.222,0-4.032-1.811-4.032-4.048    s1.811-4.046,4.032-4.046h11.631V56.666z M234.794,112.796V155.6h40.271c-0.955-11.449-6.02-21.747-13.688-29.414    C254.37,119.145,245.126,114.309,234.794,112.796z M314.137,76.275h-79.343v28.361c12.536,1.578,23.787,7.336,32.276,15.824    c9.163,9.18,15.137,21.485,16.123,35.139h30.943V76.275z M275.065,163.693h-44.318c-2.222,0-4.046-1.809-4.046-4.046v-47.313    c-12.603,0.296-23.984,5.527-32.277,13.819c-8.57,8.586-13.866,20.431-13.866,33.493c0,13.095,5.296,24.939,13.849,33.493    c8.574,8.555,20.418,13.852,33.495,13.852c13.08,0,24.924-5.297,33.477-13.852C269.046,185.475,274.11,175.144,275.065,163.693z     M257.086,399.171c-2.221,0-4.046-1.81-4.046-4.046c0-2.238,1.825-4.048,4.046-4.048h101.583V283.061    c0-2.203,1.811-4.046,4.046-4.046c2.239,0,4.047,1.843,4.047,4.046v112.064c0,2.236-1.808,4.046-4.047,4.046H257.086z     M230.748,68.182h87.436c2.221,0,4.046,1.809,4.046,4.046v87.42c0,2.237-1.825,4.046-4.046,4.046h-34.99    c-0.986,13.688-6.96,26.026-16.091,35.173c-10.034,10.002-23.886,16.22-39.201,16.22c-15.284,0-29.132-6.186-39.17-16.22    c-10.068-10.067-16.252-23.92-16.252-39.219c0-15.267,6.184-29.118,16.221-39.153c9.806-9.805,23.194-15.957,38.001-16.253V72.228    C226.701,69.99,228.526,68.182,230.748,68.182z" style="fill-rule:evenodd;clip-rule:evenodd;"/>
<path d="M412.413,251.969c2.239,0,4.047,1.81,4.047,4.015c0,2.237-1.808,4.046-4.047,4.046H99.569    c-2.222,0-4.029-1.809-4.029-4.046c0-2.205,1.807-4.015,4.029-4.015H412.413z"/>
<path d="M364.263,251.969c2.204,0,4.015,1.81,4.015,4.015c0,2.237-1.811,4.046-4.015,4.046H147.769    c-2.235,0-4.046-1.809-4.046-4.046c0-2.205,1.811-4.015,4.046-4.015H364.263z"/>
<path d="M269.538,251.969c2.238,0,4.046,1.81,4.046,4.015c0,2.237-1.808,4.046-4.046,4.046h-27.076    c-2.221,0-4.05-1.809-4.05-4.046c0-2.205,1.829-4.015,4.05-4.015H269.538z"/>
<path d="M307.293,251.969c2.239,0,4.047,1.81,4.047,4.047s-1.808,4.047-4.047,4.047H204.707c-2.239,0-4.046-1.81-4.046-4.047    s1.807-4.047,4.046-4.047H307.293z"/>
<path d="M167.215,326.228c0,2.237-1.811,4.048-4.046,4.048c-2.239,0-4.046-1.811-4.046-4.048V185.771    c0-2.237,1.807-4.047,4.046-4.047h185.664c2.238,0,4.046,1.81,4.046,4.047c0,2.204-1.808,4.014-4.046,4.014H167.215V326.228z"/>
</g>
</g>
<g id="Layer_1"/>
</svg>