<?xml version="1.0" encoding="utf-8"?>
<!-- Generator: Adobe Illustrator 27.5.0, SVG Export Plug-In . SVG Version: 6.00 Build 0)  -->
<svg version="1.1" xmlns="http://www.w3.org/2000/svg" xmlns:xlink="http://www.w3.org/1999/xlink" x="0px" y="0px"
	 viewBox="0 0 500 500" style="enable-background:new 0 0 500 500;" xml:space="preserve">
<g id="Background_Complete">
	<g>
		<rect y="382.398" style="fill:#EBEBEB;" width="500" height="0.25"/>
		<rect x="416.779" y="398.494" style="fill:#EBEBEB;" width="33.122" height="0.25"/>
		<rect x="322.527" y="401.208" style="fill:#EBEBEB;" width="8.693" height="0.25"/>
		<rect x="396.586" y="389.208" style="fill:#EBEBEB;" width="19.192" height="0.25"/>
		<rect x="52.459" y="390.888" style="fill:#EBEBEB;" width="43.193" height="0.25"/>
		<rect x="104.556" y="390.888" style="fill:#EBEBEB;" width="6.333" height="0.25"/>
		<rect x="131.471" y="395.111" style="fill:#EBEBEB;" width="93.676" height="0.25"/>
		<path style="fill:#EBEBEB;" d="M237.014,337.8H43.915c-3.147,0-5.708-2.561-5.708-5.708V60.66c0-3.147,2.561-5.708,5.708-5.708
			h193.099c3.146,0,5.707,2.561,5.707,5.708v271.432C242.721,335.239,240.16,337.8,237.014,337.8z M43.915,55.203
			c-3.01,0-5.458,2.448-5.458,5.458v271.432c0,3.01,2.448,5.458,5.458,5.458h193.099c3.009,0,5.457-2.448,5.457-5.458V60.66
			c0-3.009-2.448-5.458-5.457-5.458H43.915z"/>
		<path style="fill:#EBEBEB;" d="M453.31,337.8H260.212c-3.147,0-5.707-2.561-5.707-5.708V60.66c0-3.147,2.561-5.708,5.707-5.708
			H453.31c3.148,0,5.708,2.561,5.708,5.708v271.432C459.019,335.239,456.458,337.8,453.31,337.8z M260.212,55.203
			c-3.009,0-5.457,2.448-5.457,5.458v271.432c0,3.01,2.448,5.458,5.457,5.458H453.31c3.01,0,5.458-2.448,5.458-5.458V60.66
			c0-3.009-2.448-5.458-5.458-5.458H260.212z"/>
	</g>
	<g>
		<g>
			<rect x="68.971" y="309.273" style="fill:#F5F5F5;" width="52.07" height="73.125"/>
			<rect x="70.998" y="307.437" style="fill:#E6E6E6;" width="48.017" height="1.837"/>
			<path style="fill:#F5F5F5;" d="M85.47,290.938h19.073c9.112,0,16.499,7.387,16.499,16.499l0,0h-52.07l0,0
				C68.971,298.325,76.358,290.938,85.47,290.938z"/>
			<path style="fill:#E6E6E6;" d="M75.891,374.377h-5.51c-4.43,0-8.022,3.591-8.022,8.022l0,0h21.553l0,0
				C83.912,377.968,80.321,374.377,75.891,374.377z"/>
		</g>
		<g>
			<rect x="309.325" y="285.867" style="fill:#EBEBEB;" width="126.417" height="8.923"/>
			<rect x="380.773" y="285.867" style="fill:#E0E0E0;" width="54.969" height="8.923"/>
			<rect x="309.325" y="294.791" style="fill:#EBEBEB;" width="18.677" height="87.608"/>
			<polygon style="fill:#E0E0E0;" points="328.003,303.833 309.325,297.472 309.325,294.791 328.003,294.791 			"/>
			<rect x="417.065" y="294.791" style="fill:#E0E0E0;" width="18.678" height="87.608"/>
			<rect x="380.773" y="294.791" style="fill:#EBEBEB;" width="18.678" height="87.608"/>
			<polygon style="fill:#E0E0E0;" points="399.45,303.833 380.773,297.472 380.773,294.791 399.45,294.791 			"/>
			<rect x="345.617" y="294.791" style="fill:#E0E0E0;" width="18.678" height="87.608"/>
		</g>
		<g>
			<g>
				<g>
					<g>
						<rect x="174.022" y="74.482" style="fill:#E6E6E6;" width="248.85" height="172.331"/>
						<rect x="178.596" y="74.482" style="fill:#F5F5F5;" width="248.85" height="172.331"/>
						
							<rect x="225.556" y="44.433" transform="matrix(-1.836970e-16 1 -1 -1.836970e-16 463.6694 -142.3733)" style="fill:#FFFFFF;" width="154.93" height="232.43"/>
						
							<rect x="340.042" y="158.919" transform="matrix(-1.836970e-16 1 -1 -1.836970e-16 578.1552 -256.8591)" style="fill:#E6E6E6;" width="154.93" height="3.458"/>
						<rect x="181.992" y="97.063" style="fill:#F5F5F5;" width="242.058" height="5.84"/>
					</g>
				</g>
			</g>
			<g style="opacity:0.5;">
				<rect x="413.55" y="68.727" style="fill:#F0F0F0;" width="9.829" height="191.406"/>
				<rect x="401.066" y="68.727" style="fill:#F0F0F0;" width="9.829" height="191.406"/>
				<rect x="388.581" y="68.727" style="fill:#F0F0F0;" width="9.829" height="191.406"/>
				<rect x="376.097" y="68.727" style="fill:#F0F0F0;" width="9.829" height="191.406"/>
				<rect x="363.612" y="68.727" style="fill:#F0F0F0;" width="9.829" height="191.406"/>
				<rect x="351.127" y="68.727" style="fill:#F0F0F0;" width="9.829" height="191.406"/>
				<rect x="338.643" y="68.727" style="fill:#F0F0F0;" width="9.829" height="191.406"/>
				<rect x="326.158" y="68.727" style="fill:#F0F0F0;" width="9.829" height="191.406"/>
				<rect x="313.674" y="68.727" style="fill:#F0F0F0;" width="9.829" height="191.406"/>
				<rect x="301.189" y="68.727" style="fill:#F0F0F0;" width="9.829" height="191.406"/>
				<rect x="288.704" y="68.727" style="fill:#F0F0F0;" width="9.829" height="191.406"/>
				<rect x="276.22" y="68.727" style="fill:#F0F0F0;" width="9.829" height="191.406"/>
				<rect x="263.735" y="68.727" style="fill:#F0F0F0;" width="9.829" height="191.406"/>
				<rect x="251.251" y="68.727" style="fill:#F0F0F0;" width="9.829" height="191.406"/>
				<rect x="238.766" y="68.727" style="fill:#F0F0F0;" width="9.829" height="191.406"/>
			</g>
		</g>
	</g>
</g>
<g id="Background_Simple" style="display:none;">
	<g style="display:inline;">
		<path style="fill:#407BFF;" d="M246.156,88.231c61.682-43.679,144.403-23.899,165.081,20.739
			c28.264,61.012-26.943,148.518-86.66,195.408c-62.933,49.415-125.771,34.308-150.156-21.978
			C154.563,236.564,193.286,125.67,246.156,88.231z"/>
		<path style="opacity:0.9;fill:#FFFFFF;" d="M246.156,88.231c61.682-43.679,144.403-23.899,165.081,20.739
			c28.264,61.012-26.943,148.518-86.66,195.408c-62.933,49.415-125.771,34.308-150.156-21.978
			C154.563,236.564,193.286,125.67,246.156,88.231z"/>
	</g>
</g>
<g id="Shadow_1_">
	<ellipse id="_x3C_Path_x3E__357_" style="fill:#F5F5F5;" cx="250" cy="416.238" rx="193.889" ry="11.323"/>
</g>
<g id="Smartphone">
	<g>
		<g>
			<g>
				
					<rect x="79.721" y="170.868" transform="matrix(0.9994 -0.0358 0.0358 0.9994 -6.2215 2.9823)" style="fill:#407BFF;" width="1" height="8.928"/>
				
					<rect x="78.679" y="131.794" transform="matrix(0.9994 -0.0358 0.0358 0.9994 -5.1854 2.9286)" style="fill:#407BFF;" width="1" height="28.914"/>
				<path style="fill:#407BFF;" d="M104.907,416.124h158.035c7.066,0,12.641-5.781,12.388-12.848l-11.125-310.54
					c-0.253-7.066-6.242-12.848-13.308-12.848H92.861c-7.066,0-12.641,5.782-12.387,12.848l11.125,310.54
					C91.852,410.343,97.84,416.124,104.907,416.124z"/>
				<path style="opacity:0.8;fill:#FFFFFF;" d="M107.762,416.124h155.18c7.066,0,12.641-5.781,12.388-12.848l-11.125-310.54
					c-0.253-7.066-6.242-12.848-13.308-12.848H95.716c-7.066,0-12.641,5.782-12.387,12.848l11.125,310.54
					C94.707,410.343,100.695,416.124,107.762,416.124z"/>
			</g>
			<path style="fill:#FFFFFF;" d="M110.524,396.902H259.81c6.578,0,11.768-5.382,11.532-11.961L260.985,95.845
				c-0.236-6.578-5.811-11.961-12.389-11.961H99.311c-6.578,0-11.768,5.382-11.532,11.961l10.357,289.096
				C98.371,391.519,103.946,396.902,110.524,396.902z"/>
			<path style="fill:#FFFFFF;" d="M179.757,406.828c0.114,3.184,2.788,5.766,5.973,5.766c3.185,0,5.674-2.582,5.56-5.766
				c-0.114-3.184-2.788-5.766-5.973-5.766C182.132,401.062,179.642,403.644,179.757,406.828z"/>
		</g>
		<g>
			<path style="fill:#407BFF;" d="M244.946,173.809H109.368c-5.555,0-10.235-4.519-10.434-10.073l-2.189-61.116
				c-0.097-2.689,0.868-5.226,2.717-7.141c1.847-1.914,4.343-2.968,7.03-2.968h135.578c5.555,0,10.235,4.519,10.434,10.073
				l2.189,61.116c0.097,2.689-0.868,5.226-2.716,7.142C250.13,172.755,247.633,173.809,244.946,173.809z M106.491,93.511
				c-2.413,0-4.654,0.945-6.311,2.663c-1.658,1.718-2.523,3.995-2.437,6.411l2.189,61.116c0.18,5.023,4.413,9.109,9.435,9.109
				h135.578c2.413,0,4.654-0.945,6.311-2.662c1.658-1.719,2.523-3.996,2.437-6.411l-2.189-61.116
				c-0.18-5.023-4.413-9.109-9.435-9.109H106.491z"/>
			<g>
				<path style="fill:#263238;" d="M161.417,135.465c-2.107,2.185-10.187-2.196-18.049-9.786
					c-7.861-7.59-12.526-15.513-10.42-17.698c2.107-2.185,10.187,2.197,18.049,9.786
					C158.858,125.357,163.524,133.28,161.417,135.465z"/>
				<g>
					<path style="fill:#407BFF;" d="M143.369,125.679c-7.861-7.59-12.527-15.513-10.42-17.698L108.056,133.8
						c-2.107,2.185,2.558,10.108,10.42,17.698c7.861,7.589,15.942,11.971,18.048,9.786l24.893-25.818
						C159.311,137.65,151.23,133.269,143.369,125.679z"/>
					<path style="opacity:0.6;fill:#FFFFFF;" d="M143.369,125.679c-7.861-7.59-12.527-15.513-10.42-17.698L108.056,133.8
						c-2.107,2.185,2.558,10.108,10.42,17.698c7.861,7.589,15.942,11.971,18.048,9.786l24.893-25.818
						C159.311,137.65,151.23,133.269,143.369,125.679z"/>
				</g>
				<path style="fill:#407BFF;" d="M178.925,126.9c-4.689,8.418-11.881,10.865-20.127,9.019c-0.018,0-0.044,0-0.062-0.009
					c-3.541-0.715-9.51-4.576-15.366-10.229c-3.358-3.242-6.135-6.546-8.041-9.434c0.223-2.906,4.153-5.318,7.625-5.661
					c4.565-0.452,10.471,0.491,16.258,8.515c6.937,9.618,14.22,7.975,15.271,4.441C176.342,117.293,183.141,119.321,178.925,126.9z"
					/>
				<path style="fill:#407BFF;" d="M172.321,120.998c0.269-2.609-1.946-3.633-1.777-1.121
					C170.712,122.39,172.127,122.878,172.321,120.998z"/>
				<path style="fill:#407BFF;" d="M177.59,133.6c1.932-0.569,1.899-2.427,0.184-1.578C176.059,132.872,176.198,134.01,177.59,133.6
					z"/>
			</g>
			<g>
				<path style="fill:#407BFF;" d="M211.779,109.463c0.158,4.417-3.294,7.998-7.711,7.998c-4.417,0-8.126-3.581-8.284-7.998
					c-0.158-4.417,3.294-7.998,7.711-7.998C207.912,101.465,211.621,105.046,211.779,109.463z"/>
				
					<ellipse transform="matrix(0.7007 -0.7134 0.7134 0.7007 -10.0183 195.0423)" style="opacity:0.8;fill:#407BFF;" cx="227.479" cy="109.463" rx="7.856" ry="8.142"/>
				<path style="opacity:0.6;fill:#407BFF;" d="M212.628,133.16c0.158,4.417-3.294,7.998-7.711,7.998
					c-4.417,0-8.126-3.581-8.284-7.998c-0.158-4.417,3.294-7.998,7.711-7.998C208.761,125.162,212.47,128.743,212.628,133.16z"/>
				<path style="opacity:0.4;fill:#407BFF;" d="M236.325,133.16c0.158,4.417-3.294,7.998-7.711,7.998
					c-4.417,0-8.126-3.581-8.284-7.998c-0.158-4.417,3.294-7.998,7.711-7.998C232.458,125.162,236.167,128.743,236.325,133.16z"/>
				<path style="opacity:0.2;fill:#407BFF;" d="M213.477,156.857c0.158,4.417-3.294,7.998-7.711,7.998s-8.126-3.581-8.284-7.998
					c-0.158-4.417,3.294-7.998,7.711-7.998C209.61,148.859,213.319,152.44,213.477,156.857z"/>
				<path style="opacity:0.2;fill:#407BFF;" d="M228.89,149.859c3.878,0,7.146,3.155,7.285,7.034
					c0.067,1.864-0.595,3.613-1.862,4.927c-1.266,1.312-2.989,2.035-4.85,2.035c-3.878,0-7.146-3.155-7.285-7.034
					c-0.067-1.864,0.595-3.613,1.862-4.927C225.306,150.582,227.029,149.859,228.89,149.859 M228.89,148.859
					c-4.417,0-7.87,3.581-7.711,7.998c0.158,4.417,3.867,7.998,8.284,7.998c4.417,0,7.869-3.581,7.711-7.998
					C237.016,152.44,233.307,148.859,228.89,148.859L228.89,148.859z"/>
			</g>
			<g style="opacity:0.06;">
				<path style="fill:#407BFF;" d="M255.25,256.343L255.25,256.343c1.244,0,2.225-1.018,2.181-2.262l-2.456-68.548
					c-0.045-1.244-1.099-2.262-2.343-2.262h0c-1.244,0-2.225,1.018-2.181,2.262l2.456,68.548
					C252.952,255.326,254.006,256.343,255.25,256.343z"/>
				<path style="fill:#407BFF;" d="M244.519,256.343L244.519,256.343c1.244,0,2.225-1.018,2.181-2.262l-2.456-68.548
					c-0.045-1.244-1.099-2.262-2.343-2.262l0,0c-1.244,0-2.225,1.018-2.181,2.262l2.456,68.548
					C242.22,255.326,243.275,256.343,244.519,256.343z"/>
				<path style="fill:#407BFF;" d="M233.788,256.343L233.788,256.343c1.244,0,2.225-1.018,2.181-2.262l-2.456-68.548
					c-0.045-1.244-1.099-2.262-2.343-2.262l0,0c-1.244,0-2.225,1.018-2.181,2.262l2.456,68.548
					C231.489,255.326,232.543,256.343,233.788,256.343z"/>
				<path style="fill:#407BFF;" d="M223.056,256.343L223.056,256.343c1.244,0,2.225-1.018,2.181-2.262l-2.456-68.548
					c-0.044-1.244-1.099-2.262-2.343-2.262l0,0c-1.244,0-2.225,1.018-2.181,2.262l2.456,68.548
					C220.758,255.326,221.812,256.343,223.056,256.343z"/>
				<path style="fill:#407BFF;" d="M212.325,256.343L212.325,256.343c1.244,0,2.225-1.018,2.181-2.262l-2.456-68.548
					c-0.045-1.244-1.099-2.262-2.343-2.262l0,0c-1.244,0-2.225,1.018-2.181,2.262l2.456,68.548
					C210.027,255.326,211.081,256.343,212.325,256.343z"/>
				<path style="fill:#407BFF;" d="M201.594,256.343L201.594,256.343c1.244,0,2.225-1.018,2.181-2.262l-2.456-68.548
					c-0.045-1.244-1.099-2.262-2.343-2.262l0,0c-1.244,0-2.225,1.018-2.181,2.262l2.456,68.548
					C199.296,255.326,200.35,256.343,201.594,256.343z"/>
				<path style="fill:#407BFF;" d="M190.863,256.343L190.863,256.343c1.244,0,2.225-1.018,2.181-2.262l-2.456-68.548
					c-0.045-1.244-1.099-2.262-2.343-2.262l0,0c-1.244,0-2.225,1.018-2.181,2.262l2.456,68.548
					C188.564,255.326,189.619,256.343,190.863,256.343z"/>
				<path style="fill:#407BFF;" d="M180.132,256.343L180.132,256.343c1.244,0,2.225-1.018,2.181-2.262l-2.456-68.548
					c-0.045-1.244-1.099-2.262-2.343-2.262l0,0c-1.244,0-2.225,1.018-2.181,2.262l2.456,68.548
					C177.833,255.326,178.887,256.343,180.132,256.343z"/>
				<path style="fill:#407BFF;" d="M169.4,256.343L169.4,256.343c1.244,0,2.225-1.018,2.181-2.262l-2.456-68.548
					c-0.044-1.244-1.099-2.262-2.343-2.262l0,0c-1.244,0-2.225,1.018-2.181,2.262l2.456,68.548
					C167.102,255.326,168.156,256.343,169.4,256.343z"/>
				<path style="fill:#407BFF;" d="M158.669,256.343L158.669,256.343c1.244,0,2.225-1.018,2.181-2.262l-2.456-68.548
					c-0.044-1.244-1.099-2.262-2.343-2.262l0,0c-1.244,0-2.225,1.018-2.181,2.262l2.456,68.548
					C156.371,255.326,157.425,256.343,158.669,256.343z"/>
				<path style="fill:#407BFF;" d="M147.938,256.343L147.938,256.343c1.244,0,2.225-1.018,2.181-2.262l-2.456-68.548
					c-0.045-1.244-1.099-2.262-2.343-2.262l0,0c-1.244,0-2.225,1.018-2.181,2.262l2.456,68.548
					C145.64,255.326,146.694,256.343,147.938,256.343z"/>
				<path style="fill:#407BFF;" d="M137.207,256.343L137.207,256.343c1.244,0,2.225-1.018,2.181-2.262l-2.456-68.548
					c-0.045-1.244-1.099-2.262-2.343-2.262l0,0c-1.244,0-2.225,1.018-2.181,2.262l2.456,68.548
					C134.908,255.326,135.963,256.343,137.207,256.343z"/>
				<path style="fill:#407BFF;" d="M126.476,256.343L126.476,256.343c1.244,0,2.225-1.018,2.181-2.262l-2.456-68.548
					c-0.045-1.244-1.099-2.262-2.343-2.262l0,0c-1.244,0-2.226,1.018-2.181,2.262l2.456,68.548
					C124.177,255.326,125.232,256.343,126.476,256.343z"/>
				<path style="fill:#407BFF;" d="M115.744,256.343L115.744,256.343c1.244,0,2.225-1.018,2.181-2.262l-2.456-68.548
					c-0.045-1.244-1.099-2.262-2.343-2.262l0,0c-1.244,0-2.226,1.018-2.181,2.262l2.456,68.548
					C113.446,255.326,114.5,256.343,115.744,256.343z"/>
				<path style="fill:#407BFF;" d="M105.013,256.343L105.013,256.343c1.244,0,2.225-1.018,2.181-2.262l-2.456-68.548
					c-0.045-1.244-1.099-2.262-2.343-2.262l0,0c-1.244,0-2.225,1.018-2.181,2.262l2.456,68.548
					C102.715,255.326,103.769,256.343,105.013,256.343z"/>
			</g>
			<path style="fill:#407BFF;" d="M154.998,194.211h-41.497c-0.276,0-0.5-0.224-0.5-0.5c0-0.276,0.224-0.5,0.5-0.5h41.497
				c0.276,0,0.5,0.224,0.5,0.5C155.498,193.987,155.274,194.211,154.998,194.211z"/>
			<g>
				<path style="fill:#407BFF;" d="M244.161,247.351c-35.759,0-59.108-16.189-79.708-30.473
					c-17.155-11.895-31.97-22.167-50.951-22.167c-0.552,0-1-0.448-1-1c0-0.552,0.448-1,1-1c19.607,0,35.386,10.94,52.091,22.523
					c20.36,14.116,43.436,30.116,78.569,30.116c0.552,0,1,0.447,1,1S244.713,247.351,244.161,247.351z"/>
				<path style="fill:#407BFF;" d="M244.161,246.851h-64.387c-0.276,0-0.5-0.224-0.5-0.5s0.224-0.5,0.5-0.5h64.387
					c0.276,0,0.5,0.224,0.5,0.5S244.437,246.851,244.161,246.851z"/>
				<g>
					<path style="fill:#FFFFFF;" d="M176.919,246.351c0.028,0.788,0.69,1.428,1.479,1.428c0.788,0,1.405-0.639,1.376-1.428
						s-0.69-1.428-1.479-1.428C177.507,244.923,176.89,245.562,176.919,246.351z"/>
					<path style="fill:#407BFF;" d="M178.398,248.278c-1.053,0-1.941-0.856-1.979-1.91l0,0c-0.018-0.518,0.167-1.006,0.522-1.375
						c0.355-0.367,0.836-0.57,1.354-0.57c1.053,0,1.94,0.856,1.978,1.91c0.019,0.519-0.167,1.007-0.522,1.375
						C179.396,248.076,178.915,248.278,178.398,248.278z M178.295,245.423c-0.244,0-0.469,0.094-0.634,0.265
						c-0.165,0.172-0.251,0.4-0.243,0.645l0,0c0.019,0.522,0.458,0.945,0.98,0.945c0.244,0,0.469-0.094,0.634-0.265
						c0.165-0.171,0.251-0.4,0.243-0.646C179.255,245.847,178.816,245.423,178.295,245.423z"/>
				</g>
				<g>
					<path style="fill:#FFFFFF;" d="M157.853,193.711c-0.028-0.788-0.69-1.428-1.479-1.428c-0.788,0-1.405,0.639-1.376,1.428
						c0.028,0.788,0.69,1.428,1.479,1.428C157.265,195.138,157.881,194.499,157.853,193.711z"/>
					<path style="fill:#407BFF;" d="M156.477,195.638c-1.053,0-1.94-0.857-1.978-1.909c-0.019-0.519,0.166-1.007,0.522-1.375
						c0.355-0.368,0.836-0.571,1.354-0.571c1.053,0,1.94,0.857,1.978,1.91l0,0c0.019,0.518-0.166,1.006-0.522,1.374
						C157.476,195.436,156.995,195.638,156.477,195.638z M156.374,192.783c-0.244,0-0.47,0.094-0.634,0.265
						c-0.165,0.171-0.251,0.4-0.243,0.645c0.019,0.521,0.458,0.945,0.979,0.945c0.244,0,0.47-0.094,0.635-0.265
						c0.165-0.171,0.251-0.4,0.242-0.644l0,0C157.335,193.208,156.895,192.783,156.374,192.783z"/>
				</g>
				<path style="fill:#263238;" d="M239.614,246.351c0.09,2.511,2.198,4.546,4.709,4.546c2.511,0,4.474-2.036,4.384-4.546
					c-0.09-2.511-2.198-4.546-4.709-4.546C241.487,241.804,239.524,243.84,239.614,246.351z"/>
				<path style="fill:#263238;" d="M108.954,193.711c0.09,2.511,2.198,4.546,4.709,4.546c2.511,0,4.474-2.036,4.384-4.546
					c-0.09-2.511-2.198-4.546-4.709-4.546C110.827,189.164,108.864,191.2,108.954,193.711z"/>
			</g>
			<path style="fill:#407BFF;" d="M256.162,282.801H105.925c-0.552,0-1-0.447-1-1c0-0.553,0.448-1,1-1h150.236c0.552,0,1,0.447,1,1
				C257.162,282.353,256.714,282.801,256.162,282.801z"/>
			<path style="fill:#407BFF;" d="M257.313,314.92H107.076c-0.552,0-1-0.447-1-1c0-0.553,0.448-1,1-1h150.236c0.552,0,1,0.447,1,1
				C258.313,314.473,257.865,314.92,257.313,314.92z"/>
			<path style="fill:#407BFF;" d="M258.463,347.04H108.227c-0.552,0-1-0.447-1-1c0-0.553,0.448-1,1-1h150.236c0.552,0,1,0.447,1,1
				C259.463,346.593,259.015,347.04,258.463,347.04z"/>
			<g>
				<polygon style="fill:#FFFFFF;" points="219.002,286.952 229.304,286.952 228.935,276.65 218.633,276.65 				"/>
				<path style="fill:#407BFF;" d="M229.304,287.452h-10.303c-0.269,0-0.49-0.213-0.499-0.482l-0.369-10.303
					c-0.005-0.136,0.045-0.267,0.14-0.364c0.094-0.099,0.224-0.153,0.36-0.153h10.303c0.269,0,0.49,0.213,0.499,0.482l0.369,10.303
					c0.005,0.136-0.045,0.267-0.14,0.364C229.57,287.397,229.44,287.452,229.304,287.452z M219.484,286.452h9.302l-0.333-9.303
					h-9.302L219.484,286.452z"/>
			</g>
			<g>
				<polygon style="fill:#FFFFFF;" points="123.572,319.072 133.874,319.072 133.505,308.769 123.202,308.769 				"/>
				<path style="fill:#407BFF;" d="M133.874,319.571h-10.302c-0.269,0-0.49-0.213-0.499-0.482l-0.369-10.303
					c-0.005-0.136,0.045-0.267,0.14-0.364c0.094-0.099,0.224-0.153,0.36-0.153h10.302c0.269,0,0.49,0.213,0.499,0.482l0.369,10.303
					c0.005,0.136-0.045,0.267-0.14,0.364C134.14,319.517,134.01,319.571,133.874,319.571z M124.054,318.571h9.302l-0.333-9.303
					h-9.302L124.054,318.571z"/>
			</g>
			<g>
				<polygon style="fill:#FFFFFF;" points="134.74,351.191 145.042,351.191 144.673,340.888 134.371,340.888 				"/>
				<path style="fill:#407BFF;" d="M145.042,351.69H134.74c-0.269,0-0.49-0.213-0.499-0.482l-0.369-10.302
					c-0.005-0.136,0.045-0.267,0.14-0.365c0.094-0.098,0.224-0.152,0.36-0.152h10.302c0.269,0,0.49,0.213,0.499,0.482l0.369,10.302
					c0.005,0.136-0.045,0.267-0.14,0.364C145.308,351.636,145.178,351.69,145.042,351.69z M135.222,350.69h9.302l-0.333-9.302
					h-9.302L135.222,350.69z"/>
			</g>
			<g>
				<path style="fill:#407BFF;" d="M114.311,382.441h13.317c2.629,0,4.703-2.151,4.609-4.78l-0.477-13.317
					c-0.094-2.629-2.322-4.78-4.952-4.78h-13.317c-2.629,0-4.703,2.151-4.609,4.78l0.477,13.317
					C109.454,380.29,111.682,382.441,114.311,382.441z"/>
				<path style="fill:#407BFF;" d="M127.628,382.941h-13.317c-2.902,0-5.347-2.36-5.451-5.263l-0.477-13.316
					c-0.051-1.409,0.455-2.738,1.424-3.742c0.968-1.003,2.276-1.556,3.685-1.556h13.317c2.902,0,5.347,2.36,5.451,5.263
					l0.477,13.316c0.051,1.408-0.455,2.737-1.424,3.742C130.344,382.389,129.036,382.941,127.628,382.941z M113.491,360.065
					c-1.134,0-2.187,0.444-2.965,1.25c-0.779,0.808-1.185,1.877-1.145,3.013l0.477,13.316c0.085,2.37,2.082,4.298,4.452,4.298
					h13.317c1.134,0,2.187-0.444,2.965-1.25c0.779-0.808,1.185-1.877,1.145-3.013l-0.477-13.316
					c-0.085-2.37-2.082-4.298-4.452-4.298H113.491z"/>
			</g>
			<g>
				<g>
					<path style="fill:#FFFFFF;" d="M241.67,382.441h13.317c2.629,0,4.703-2.151,4.609-4.78l-0.477-13.317
						c-0.094-2.629-2.322-4.78-4.952-4.78H240.85c-2.629,0-4.703,2.151-4.609,4.78l0.477,13.317
						C236.813,380.29,239.041,382.441,241.67,382.441z"/>
					<path style="fill:#407BFF;" d="M254.987,382.941H241.67c-2.902,0-5.347-2.36-5.451-5.263l-0.477-13.316
						c-0.05-1.409,0.456-2.738,1.424-3.742c0.968-1.003,2.276-1.556,3.685-1.556h13.317c2.902,0,5.348,2.36,5.451,5.263
						l0.477,13.316c0.051,1.409-0.455,2.737-1.424,3.742C257.703,382.389,256.395,382.941,254.987,382.941z M240.851,360.065
						c-1.134,0-2.187,0.444-2.965,1.25c-0.779,0.807-1.186,1.877-1.145,3.013l0.477,13.316c0.085,2.37,2.082,4.298,4.452,4.298
						h13.317c1.134,0,2.187-0.444,2.965-1.25c0.779-0.808,1.185-1.877,1.145-3.013l-0.477-13.316
						c-0.084-2.37-2.082-4.298-4.452-4.298H240.851z"/>
				</g>
				<path style="fill:#407BFF;" d="M259.357,371.503c-0.229,0-0.435-0.157-0.487-0.39c-0.956-4.22-2.645-5.807-4.134-7.206
					c-1.184-1.113-2.303-2.164-2.551-4.284c-0.032-0.274,0.164-0.523,0.438-0.556c0.271-0.028,0.522,0.165,0.555,0.438
					c0.206,1.758,1.105,2.603,2.243,3.672c1.515,1.425,3.401,3.196,4.425,7.715c0.061,0.27-0.108,0.537-0.377,0.598
					C259.431,371.499,259.394,371.503,259.357,371.503z"/>
				<path style="fill:#407BFF;" d="M259.148,376.498c-7.513,0-10.433-10.507-11.511-16.85c-0.046-0.272,0.137-0.53,0.409-0.577
					c0.278-0.045,0.531,0.137,0.577,0.409c1.042,6.132,3.872,16.327,10.887,16.009c0.269-0.042,0.51,0.198,0.524,0.474
					c0.014,0.276-0.199,0.511-0.475,0.524C259.422,376.494,259.285,376.498,259.148,376.498z"/>
				<path style="fill:#407BFF;" d="M253.099,382.941c-0.09,0-0.182-0.024-0.264-0.076c-0.234-0.146-0.306-0.454-0.16-0.688
					c0.09-0.145,0.083-0.24,0.065-0.314c-0.152-0.612-1.581-1.447-2.962-2.254c-3.205-1.871-7.594-4.434-6-9.005
					c2.9-8.314-1.718-10.493-1.916-10.582c-0.251-0.112-0.365-0.407-0.254-0.658c0.111-0.253,0.403-0.368,0.656-0.257
					c0.057,0.024,5.677,2.598,2.458,11.827c-1.323,3.793,2.493,6.022,5.56,7.811c1.774,1.036,3.176,1.855,3.429,2.877
					c0.091,0.367,0.026,0.742-0.188,1.084C253.429,382.858,253.266,382.941,253.099,382.941z"/>
				<path style="fill:#407BFF;" d="M244.846,382.941c-0.074,0-0.149-0.017-0.22-0.051c-5.41-2.658-4.915-6.627-4.477-10.128
					c0.045-0.363,0.091-0.724,0.129-1.08c0.284-2.653-0.295-5.162-1.475-6.393c-0.594-0.618-1.329-0.909-2.183-0.85
					c-0.283,0.025-0.514-0.192-0.531-0.467c-0.018-0.275,0.191-0.514,0.467-0.531c1.146-0.074,2.173,0.325,2.969,1.156
					c1.669,1.741,1.997,4.856,1.747,7.191c-0.039,0.362-0.085,0.729-0.13,1.098c-0.435,3.478-0.845,6.763,3.925,9.105
					c0.248,0.122,0.35,0.422,0.229,0.67C245.208,382.839,245.03,382.941,244.846,382.941z"/>
			</g>
			<g>
				<g>
					<path style="fill:#FFFFFF;" d="M199.217,382.441h13.317c2.629,0,4.703-2.151,4.609-4.78l-0.477-13.317
						c-0.094-2.629-2.322-4.78-4.952-4.78h-13.317c-2.629,0-4.703,2.151-4.609,4.78l0.477,13.317
						C194.36,380.29,196.588,382.441,199.217,382.441z"/>
					<path style="fill:#407BFF;" d="M212.534,382.941h-13.317c-2.901,0-5.347-2.36-5.451-5.263l-0.477-13.316
						c-0.051-1.409,0.455-2.738,1.424-3.742c0.968-1.003,2.276-1.556,3.685-1.556h13.317c2.902,0,5.347,2.36,5.451,5.263
						l0.477,13.316c0.051,1.408-0.455,2.737-1.424,3.742C215.251,382.389,213.942,382.941,212.534,382.941z M198.398,360.065
						c-1.134,0-2.187,0.444-2.965,1.25c-0.779,0.807-1.185,1.877-1.145,3.013l0.477,13.316c0.085,2.37,2.082,4.298,4.452,4.298
						h13.317c1.134,0,2.188-0.444,2.965-1.25c0.779-0.808,1.185-1.877,1.145-3.013l-0.477-13.316
						c-0.085-2.37-2.082-4.298-4.452-4.298H198.398z"/>
				</g>
				<path style="fill:#407BFF;" d="M205.559,374.094c-1.695,0-3.123-1.379-3.184-3.073c-0.03-0.829,0.266-1.609,0.833-2.197
					c0.567-0.588,1.335-0.911,2.165-0.911c1.694,0,3.123,1.379,3.183,3.073c0.03,0.829-0.266,1.609-0.833,2.197
					C207.156,373.771,206.387,374.094,205.559,374.094z M205.373,368.912c-0.555,0-1.068,0.215-1.445,0.605
					c-0.377,0.391-0.574,0.912-0.554,1.468c0.042,1.162,1.022,2.108,2.185,2.108c0.555,0,1.068-0.215,1.444-0.605
					c0.377-0.391,0.574-0.912,0.554-1.468C207.515,369.858,206.536,368.912,205.373,368.912z"/>
				<path style="fill:#407BFF;" d="M205.148,362.655c-1.694,0-3.123-1.379-3.183-3.073c-0.01-0.275,0.206-0.508,0.481-0.517
					c0.27,0.01,0.508,0.206,0.518,0.482c0.042,1.162,1.021,2.108,2.184,2.108c0.555,0,1.068-0.215,1.445-0.605
					c0.377-0.391,0.574-0.912,0.554-1.468c-0.01-0.275,0.205-0.508,0.481-0.517c0.271,0.01,0.508,0.206,0.518,0.482
					c0.03,0.829-0.266,1.609-0.833,2.197C206.746,362.332,205.977,362.655,205.148,362.655z"/>
				<path style="fill:#407BFF;" d="M208.466,382.941c-0.268,0-0.49-0.212-0.499-0.482c-0.042-1.162-1.021-2.108-2.184-2.108
					c-0.555,0-1.068,0.215-1.444,0.605c-0.377,0.391-0.574,0.912-0.554,1.468c0.01,0.275-0.206,0.508-0.481,0.518
					c-0.271,0.007-0.508-0.205-0.518-0.482c-0.03-0.829,0.266-1.609,0.833-2.197c0.567-0.588,1.335-0.911,2.164-0.911
					c1.694,0,3.123,1.379,3.183,3.073c0.01,0.275-0.206,0.508-0.481,0.518C208.478,382.941,208.472,382.941,208.466,382.941z"/>
				<path style="fill:#407BFF;" d="M199.339,379.814c-1.694,0-3.123-1.379-3.183-3.074l0,0c-0.03-0.829,0.266-1.609,0.833-2.197
					c0.567-0.588,1.335-0.911,2.164-0.911c1.694,0,3.123,1.379,3.183,3.073c0.03,0.829-0.266,1.61-0.833,2.198
					C200.936,379.49,200.168,379.814,199.339,379.814z M199.154,374.631c-0.555,0-1.068,0.215-1.444,0.605
					c-0.377,0.391-0.574,0.912-0.554,1.468l0,0c0.042,1.163,1.021,2.109,2.184,2.109c0.555,0,1.067-0.215,1.444-0.605
					c0.377-0.391,0.574-0.912,0.554-1.469C201.296,375.577,200.316,374.631,199.154,374.631z"/>
				<path style="fill:#407BFF;" d="M198.93,368.374c-1.694,0-3.123-1.379-3.183-3.073c-0.03-0.829,0.266-1.609,0.833-2.197
					c0.567-0.588,1.335-0.911,2.164-0.911c1.694,0,3.123,1.379,3.183,3.073c0.03,0.829-0.266,1.609-0.833,2.197
					C200.527,368.051,199.758,368.374,198.93,368.374z M198.744,363.192c-0.555,0-1.068,0.215-1.444,0.605
					c-0.377,0.391-0.574,0.912-0.554,1.468c0.042,1.162,1.021,2.108,2.184,2.108c0.555,0,1.068-0.215,1.444-0.605
					c0.378-0.391,0.574-0.912,0.554-1.468C200.886,364.139,199.907,363.192,198.744,363.192z"/>
				<path style="fill:#407BFF;" d="M212.187,379.814c-1.694,0-3.122-1.379-3.183-3.074l0,0c-0.03-0.829,0.266-1.609,0.833-2.197
					c0.567-0.588,1.335-0.911,2.164-0.911c1.695,0,3.123,1.379,3.184,3.073c0.03,0.83-0.267,1.61-0.835,2.198
					C213.784,379.49,213.016,379.814,212.187,379.814z M212.001,374.631c-0.555,0-1.068,0.215-1.444,0.605
					c-0.377,0.391-0.574,0.912-0.554,1.468l0,0c0.042,1.163,1.021,2.109,2.184,2.109c0.555,0,1.067-0.215,1.444-0.605
					c0.378-0.391,0.574-0.912,0.555-1.469C214.144,375.577,213.164,374.631,212.001,374.631z"/>
				<path style="fill:#407BFF;" d="M211.777,368.374c-1.694,0-3.122-1.379-3.183-3.073c-0.03-0.829,0.266-1.609,0.834-2.197
					c0.567-0.588,1.335-0.911,2.164-0.911c1.694,0,3.123,1.379,3.183,3.073c0.03,0.829-0.266,1.609-0.833,2.197
					C213.374,368.051,212.606,368.374,211.777,368.374z M211.592,363.192c-0.555,0-1.068,0.215-1.444,0.605
					c-0.378,0.391-0.574,0.912-0.554,1.468c0.042,1.162,1.021,2.108,2.184,2.108c0.555,0,1.068-0.215,1.444-0.605
					c0.377-0.391,0.574-0.912,0.554-1.468C213.734,364.139,212.754,363.192,211.592,363.192z"/>
			</g>
			<g>
				<g>
					<path style="fill:#FFFFFF;" d="M156.764,382.441h13.317c2.629,0,4.703-2.151,4.609-4.78l-0.477-13.317
						c-0.094-2.629-2.322-4.78-4.952-4.78h-13.317c-2.629,0-4.703,2.151-4.609,4.78l0.477,13.317
						C151.907,380.29,154.135,382.441,156.764,382.441z"/>
					<path style="fill:#407BFF;" d="M170.081,382.941h-13.316c-2.902,0-5.347-2.36-5.451-5.263l-0.477-13.316
						c-0.051-1.409,0.455-2.738,1.424-3.742c0.968-1.003,2.276-1.556,3.685-1.556h13.317c2.902,0,5.347,2.36,5.451,5.263
						l0.477,13.316c0.051,1.408-0.455,2.737-1.424,3.742C172.797,382.389,171.489,382.941,170.081,382.941z M155.944,360.065
						c-1.134,0-2.187,0.444-2.965,1.25c-0.779,0.808-1.185,1.877-1.145,3.013l0.477,13.316c0.085,2.37,2.082,4.298,4.452,4.298
						h13.316c1.134,0,2.188-0.444,2.965-1.25c0.779-0.808,1.185-1.877,1.145-3.013l-0.477-13.316
						c-0.085-2.37-2.082-4.298-4.452-4.298H155.944z"/>
				</g>
				<path style="fill:#407BFF;" d="M170.08,382.941c-0.268,0-0.49-0.212-0.499-0.482l-0.819-22.877
					c-0.01-0.275,0.206-0.508,0.481-0.517c0.286,0.01,0.508,0.206,0.518,0.482l0.819,22.877c0.01,0.275-0.206,0.508-0.481,0.518
					C170.092,382.941,170.086,382.941,170.08,382.941z"/>
				<path style="fill:#407BFF;" d="M163.422,382.941c-0.268,0-0.49-0.212-0.499-0.482l-0.819-22.877
					c-0.01-0.275,0.206-0.508,0.482-0.517c0.286,0.01,0.508,0.206,0.517,0.482l0.819,22.877c0.01,0.275-0.206,0.508-0.482,0.518
					C163.434,382.941,163.428,382.941,163.422,382.941z"/>
				<path style="fill:#407BFF;" d="M156.764,382.941c-0.268,0-0.49-0.212-0.499-0.482l-0.82-22.877
					c-0.01-0.275,0.206-0.508,0.482-0.517c0.286,0.01,0.508,0.206,0.518,0.482l0.82,22.877c0.01,0.275-0.206,0.508-0.482,0.518
					C156.776,382.941,156.77,382.941,156.764,382.941z"/>
			</g>
		</g>
	</g>
</g>
<g id="Character_1_">
	<g>
		<path style="fill:#263238;" d="M315.367,123.173l1.362,9.881h-61.982l-1.362-9.881h-5.298l40.625,294.676h5.298l-1.362-9.881
			h61.982l1.362,9.881h5.298l-40.625-294.676H315.367z M317.304,137.227l6.89,49.976h-61.982l-6.89-49.976H317.304z M277.142,295.5
			l-6.89-49.976h61.982l6.89,49.976H277.142z M339.699,299.672l6.89,49.976h-61.982l-6.89-49.976H339.699z M269.677,241.352
			l-6.89-49.977h61.982l6.89,49.977H269.677z M292.073,403.797l-6.89-49.977h61.982l6.89,49.977H292.073z"/>
		<g>
			<path style="fill:#FFB573;" d="M305.012,125.343c0.056-1.173,0.894-3.039,2.278-3.774c-0.009-1.434-0.589-2.983-1.891-4.743
				l15.872-7.298c1.02,5.993,1.837,10.728,5.297,13.37c-2.686,2.452-7.641,6.866-14.906,7.317
				C304.398,130.667,304.889,127.907,305.012,125.343z"/>
			<path style="fill:#ED893E;" d="M298.991,102.1l1.246,5.882c0,0-2.137,0.982-3.671,0.255
				C296.701,105.049,298.991,102.1,298.991,102.1z"/>
			<path style="fill:#263238;" d="M298.934,101.304c0.07,0.712-0.252,1.322-0.718,1.364c-0.466,0.041-0.901-0.502-0.97-1.214
				c-0.07-0.712,0.252-1.322,0.718-1.364C298.43,100.048,298.864,100.592,298.934,101.304z"/>
			<path style="fill:#263238;" d="M297.107,95.952c0.052,0.126,0.163,0.224,0.306,0.251c1.814,0.35,2.408,1.742,2.432,1.801
				c0.088,0.214,0.332,0.316,0.546,0.227c0.213-0.089,0.317-0.333,0.23-0.548c-0.033-0.077-0.773-1.87-3.046-2.308
				c-0.227-0.044-0.447,0.106-0.492,0.335C297.066,95.795,297.076,95.878,297.107,95.952z"/>
			<path style="fill:#263238;" d="M304.215,87.61c-0.043,0-0.088-0.011-0.128-0.036c-1.465-0.879-2.315-2.115-2.392-3.481
				c-0.078-1.379,0.639-2.754,1.966-3.769c0.109-0.084,0.267-0.063,0.351,0.047c0.083,0.109,0.063,0.267-0.047,0.351
				c-1.193,0.913-1.839,2.132-1.771,3.344c0.067,1.195,0.831,2.289,2.15,3.081c0.119,0.071,0.157,0.225,0.086,0.343
				C304.383,87.567,304.3,87.61,304.215,87.61z"/>
			<path style="fill:#FFB573;" d="M322.777,96.438c0.316,8.789,0.341,14.765-4.368,18.951c-9.356,8.317-15.87,4.144-18.813-4.397
				c-2.648-7.687-2.72-20.769,5.515-25.008C313.225,81.808,322.462,87.649,322.777,96.438z"/>
			<path style="fill:#263238;" d="M297.786,113.829c0,0-1.333-0.654-1.927-2.736c-0.595-2.082,3.005-2.689,3.005-2.689
				s-0.239-6.303,2.111-9.862c-0.922-3.175,0.178-10.587,5.361-9.955c-0.543-1.435-2.805-1.606-2.805-1.606
				s-2.615-5.643,3.541-6.089s8.297,1.383,7.941,2.141c8.208-1.071,16.332,6.602,11.557,9.145c6.179,3.569-1.207,9.903-2.322,14.275
				c-1.115,4.372-2.215,5.978-3.643,6.9c-3.243,2.094-6.635,0.481-10.469-2.558c-2.44-1.935-4.674-5.33-5.978-7.546
				c-0.001,0.088,0.005,0.168,0.001,0.259c-0.95,4.486,2.629,5.83,3.227,11.599c0.535,5.165-2.9,5.918-9.378,5.799
				C291.527,120.788,297.786,113.829,297.786,113.829z"/>
			<g>
				<polygon style="fill:#FFB573;" points="356.397,311.921 368.807,306.867 375.449,321.216 365.088,325.456 				"/>
				<polygon style="opacity:0.2;" points="356.403,311.925 368.817,306.868 372.534,314.905 361.267,319.505 				"/>
			</g>
			<path style="fill:#263238;" d="M357.23,262.292c-4.758-19.985-4.131-50.847-11.742-59.522l-41.642,2.828
				c0,0,15.557,43.175,21.558,61.42c6.237,18.971,33.439,50.554,33.439,50.554l13.376-5.557
				C372.219,312.015,364.468,278.174,357.23,262.292z"/>
			<path d="M319.294,229.128c2.248,8.019,1.927,18.479,1.499,24.336c-1.542-4.475-3.222-9.283-4.914-14.068L319.294,229.128z"/>
			<path style="fill:#FFB573;" d="M308.965,102.446c-0.695,1.936-3.073,4.652-4.713,4.235c-0.722-0.042-1.071-1.858-1.09-3.571
				c-0.024-2.17,0.305-5.236,2.801-5.267C308.422,97.814,309.759,100.232,308.965,102.446z"/>
			<path style="fill:#407BFF;" d="M379.719,321.989l-2.203,1.905l-1.37-0.378l-0.376,1.903l-13.296,11.496
				c-1.403-1.096-2.066-3.536-2.066-3.536s3.664-3.799,3.479-7.104c-0.014-0.255,0.099-0.497,0.322-0.621
				c1.564-0.867,7.683-4.421,9.677-7.966c0.216-0.384,0.732-0.457,1.025-0.128C376.926,319.819,379.719,321.989,379.719,321.989z"/>
			<g>
				<polygon style="fill:#FFB573;" points="299.046,328.814 312.436,328.943 311.93,344.744 300.742,344.655 				"/>
				<polygon style="opacity:0.2;" points="299.049,328.82 312.444,328.948 312.158,337.796 299.996,337.691 				"/>
			</g>
			<path style="fill:#263238;" d="M314.073,268.834c4.673-20.786,9.993-43.853,7.217-64.421l-40.98,3.314
				c0,0,3.681,44.25,4.677,62.948c1.033,19.442,13.649,64.297,13.649,64.297l15.324,0.038
				C313.96,335.009,317.158,290.361,314.073,268.834z"/>
			<path style="fill:#407BFF;" d="M314.073,349.636h-3.534l-0.854-1.182l-1.464,1.194h-19.739c-0.44-1.747,0.53-4.026,0.53-4.026
				s6.85-1.111,9.503-2.932c0.432-0.297,0.977-0.431,1.561-0.318c2.391,0.462,8.712,1.484,12.13,0.15
				c0.326-0.127,0.74,0.152,0.764,0.522C313.172,346.093,314.073,349.636,314.073,349.636z"/>
			<path style="fill:#407BFF;" d="M295.638,123.178c10.893-2.142,25.591-3.332,37.131-2.765c7.203,0.354,12.522,6.785,11.761,13.956
				c-3.138,29.557,2.873,64.29,2.797,70.083c0,0-26.038,14.061-68.793,5.418c-7.009-35.221,3.076-65.9,7.788-78.719
				C287.83,127.051,291.353,124.021,295.638,123.178z"/>
			<path style="fill:#FFB573;" d="M244.853,137.296l-3.594,4.349c-5.15,2.936-7.779-4.338-7.779-4.338l-2.677-2.987
				c-0.908-1.013-0.846-2.649,0.145-3.868l2.489-3.06c1.134-1.395,3.065-1.74,4.28-0.766l2.73,2.19
				c0.795,0.637,1.419,1.461,1.818,2.398L244.853,137.296z"/>
			<path style="fill:#407BFF;" d="M290.973,126.424l-3.544,2.718c-1.21,0.922-2.433,1.839-3.663,2.736
				c-2.452,1.807-4.897,3.629-7.378,5.328c-1.237,0.856-2.479,1.695-3.721,2.505l-1.852,1.226l-1.85,1.163
				c-1.541,0.942-3.076,1.845-4.571,2.664c-0.641-0.219-1.293-0.454-1.954-0.721c-2.048-0.824-4.195-1.788-6.332-2.86
				c-2.15-1.055-4.31-2.204-6.473-3.384l-3.248-1.791l-3.16-1.797l-8.956,11.238c1.057,1.063,1.998,1.963,3.023,2.898
				c1.008,0.923,2.018,1.846,3.061,2.735c2.081,1.782,4.236,3.495,6.496,5.152c2.273,1.637,4.625,3.244,7.216,4.718
				c2.599,1.473,5.358,2.896,8.863,3.997c1.733,0.545,3.655,0.548,5.495-0.119l0.727-0.263c3.624-1.313,6.836-2.808,9.941-4.396
				c3.113-1.569,6.027-3.266,8.907-5.014c2.874-1.746,5.678-3.532,8.428-5.396c1.372-0.936,2.727-1.887,4.081-2.853
				c1.376-0.973,2.653-1.916,4.089-3.024L290.973,126.424z"/>
			<path style="fill:#FFB573;" d="M381.866,178.631l-3.115,4.704c-1.309,5.782,6.415,6.179,6.415,6.179l3.637,1.691
				c1.233,0.573,2.781,0.038,3.658-1.265l2.203-3.272c1.004-1.491,0.772-3.439-0.514-4.318l-2.89-1.975
				c-0.841-0.575-1.811-0.932-2.824-1.041L381.866,178.631z"/>
			<path style="fill:#407BFF;" d="M378.363,174l-6.58-4.944l-6.524-4.884c-1.589-1.197-3.172-2.407-4.681-3.593
				c-1.47-2.179-2.919-4.549-4.357-6.962c-0.794-1.351-1.579-2.72-2.35-4.114c-0.788-1.378-1.564-2.78-2.332-4.186
				c-1.546-2.808-3.017-5.69-4.512-8.555c-1.498-2.838-2.979-5.81-4.384-8.566l-19.793,9.939c1.607,3.183,3.25,6.094,4.934,9.106
				c1.698,2.979,3.468,5.916,5.29,8.853c1.824,2.94,3.696,5.855,5.736,8.747c2.026,2.906,4.16,5.778,6.593,8.681l0.527,0.632
				c0.425,0.502,0.93,0.95,1.51,1.327c2.544,1.65,5.015,3.07,7.495,4.486c2.472,1.415,4.963,2.734,7.446,4.051
				c2.494,1.3,4.992,2.571,7.512,3.798c2.538,1.208,5.04,2.423,7.642,3.562l7.365-12.339C382.76,177.337,380.539,175.68,378.363,174
				z"/>
		</g>
	</g>
</g>
</svg>
