<?xml version="1.0" encoding="utf-8"?>
<!-- Generator: Adobe Illustrator 27.5.0, SVG Export Plug-In . SVG Version: 6.00 Build 0)  -->
<svg version="1.1" id="_x3C_Layer_x3E_" xmlns="http://www.w3.org/2000/svg" xmlns:xlink="http://www.w3.org/1999/xlink" x="0px"
	 y="0px" viewBox="0 0 2832.012 1820" style="enable-background:new 0 0 2832.012 1820;" xml:space="preserve">
<rect x="0" style="fill:#FAFAFA;" width="2832.012" height="1820"/>
<g>
	<g>
		<polygon style="fill:#D1CF8E;" points="2141.82,82.45 1984.834,312.039 1743.694,305.08 1476.253,627.496 1185.708,572.846 
			1006.909,745.58 995.59,734.214 1180.373,555.497 1469.943,610.006 1736.318,288.844 1976.53,295.802 2122.429,82.45 		"/>
	</g>
	<path style="fill:#FFFFFF;" d="M1514.635,608.543c5.628,22.93-8.397,46.08-31.328,51.709c-22.93,5.629-46.08-8.396-51.709-31.326
		c-5.628-22.931,8.397-46.081,31.327-51.71C1485.854,571.588,1509.006,585.612,1514.635,608.543z"/>
	<path style="fill:#D1CF8E;" d="M1485.218,668.037c-27.185,6.673-54.731-10.016-61.404-37.201
		c-6.674-27.185,10.015-54.732,37.2-61.405c27.187-6.673,54.732,10.016,61.405,37.202
		C1529.092,633.817,1512.403,661.364,1485.218,668.037z M1464.836,585c-18.601,4.566-30.019,23.413-25.453,42.015
		c4.566,18.601,23.413,30.019,42.014,25.453c18.601-4.566,30.02-23.413,25.453-42.015
		C1502.283,591.852,1483.437,580.435,1464.836,585z"/>
	<path style="fill:#FFFFFF;" d="M1781.512,289.476c5.629,22.93-8.396,46.081-31.326,51.71c-22.93,5.629-46.081-8.398-51.71-31.328
		c-5.628-22.929,8.397-46.081,31.327-51.709C1752.732,252.52,1775.885,266.546,1781.512,289.476z"/>
	<path style="fill:#D1CF8E;" d="M1752.097,348.97c-27.187,6.675-54.731-10.014-61.406-37.2
		c-6.673-27.187,10.016-54.732,37.202-61.406c27.186-6.672,54.731,10.015,61.405,37.202
		C1795.97,314.751,1779.282,342.297,1752.097,348.97z M1731.714,265.933c-18.601,4.566-30.019,23.413-25.453,42.015
		c4.565,18.601,23.413,30.02,42.015,25.454c18.6-4.565,30.018-23.413,25.453-42.014
		C1769.162,272.786,1750.316,261.368,1731.714,265.933z"/>
	<path style="fill:#FFFFFF;" d="M2019.846,292.468c5.629,22.929-8.397,46.081-31.327,51.709c-22.93,5.629-46.08-8.397-51.709-31.327
		c-5.628-22.93,8.398-46.081,31.326-51.708C1991.066,255.512,2014.218,269.538,2019.846,292.468z"/>
	<path style="fill:#FFFFFF;" d="M1224.424,557.938c5.629,22.931-8.398,46.081-31.327,51.71c-22.93,5.628-46.081-8.397-51.709-31.327
		c-5.628-22.93,8.397-46.08,31.326-51.709C1195.645,520.982,1218.795,535.008,1224.424,557.938z"/>
	<path style="fill:#D1CF8E;" d="M1195.008,617.433c-27.186,6.673-54.732-10.016-61.405-37.203
		c-6.673-27.185,10.016-54.732,37.201-61.403c27.187-6.673,54.733,10.016,61.405,37.201
		C1238.882,583.213,1222.193,610.76,1195.008,617.433z M1174.626,534.396c-18.601,4.566-30.02,23.413-25.454,42.014
		c4.565,18.601,23.413,30.02,42.015,25.454c18.602-4.566,30.019-23.413,25.453-42.015
		C1212.073,541.248,1193.227,529.83,1174.626,534.396z"/>
	<path style="fill:#D1CF8E;" d="M1990.43,351.961c-27.185,6.673-54.732-10.014-61.405-37.201
		c-6.673-27.186,10.015-54.732,37.201-61.405c27.187-6.673,54.732,10.015,61.405,37.202
		C2034.304,317.742,2017.615,345.288,1990.43,351.961z M1970.047,268.925c-18.6,4.566-30.019,23.413-25.453,42.014
		c4.566,18.602,23.413,30.018,42.014,25.453c18.602-4.565,30.02-23.413,25.454-42.013
		C2007.495,275.777,1988.649,264.358,1970.047,268.925z"/>
	<g>
		<polygon style="fill:#D1CF8E;" points="756.813,1103.481 751.087,1093.09 904.473,964.288 1099.298,1062.333 1354.512,888.462 
			1523.934,942.584 1705.555,792.483 1713.113,801.63 1526.496,955.859 1356.411,901.525 1100.204,1076.072 904.723,977.696 		"/>
	</g>
	<path style="fill:#FFFFFF;" d="M1131.368,1070.455c-0.693,17.462-15.41,31.056-32.87,30.364
		c-17.462-0.692-31.056-15.409-30.364-32.87c0.692-17.462,15.408-31.056,32.87-30.363
		C1118.465,1038.278,1132.06,1052.993,1131.368,1070.455z"/>
	<path style="fill:#D1CF8E;" d="M1098.263,1106.747c-20.702-0.82-36.878-18.33-36.057-39.032
		c0.821-20.703,18.331-36.879,39.032-36.058c20.702,0.82,36.878,18.331,36.057,39.033
		C1136.475,1091.393,1118.966,1107.567,1098.263,1106.747z M1100.77,1043.514c-14.166-0.563-26.147,10.506-26.707,24.671
		c-0.562,14.164,10.505,26.145,24.67,26.706c14.165,0.561,26.146-10.506,26.706-24.67
		C1126,1056.055,1114.934,1044.075,1100.77,1043.514z"/>
	<path style="fill:#FFFFFF;" d="M1386.519,898.166c-0.692,17.462-15.408,31.057-32.87,30.364
		c-17.461-0.692-31.056-15.408-30.363-32.87c0.693-17.46,15.408-31.055,32.87-30.363
		C1373.616,865.989,1387.211,880.706,1386.519,898.166z"/>
	<path style="fill:#D1CF8E;" d="M1353.414,934.459c-20.702-0.821-36.877-18.331-36.057-39.033
		c0.82-20.702,18.33-36.877,39.033-36.057c20.702,0.82,36.877,18.33,36.057,39.033
		C1391.626,919.104,1374.116,935.279,1353.414,934.459z M1355.92,871.226c-14.164-0.561-26.146,10.505-26.707,24.67
		c-0.561,14.165,10.506,26.146,24.671,26.707c14.165,0.562,26.146-10.506,26.707-24.67
		C1381.152,883.768,1370.085,871.787,1355.92,871.226z"/>
	<path style="fill:#FFFFFF;" d="M1555.421,949.098c-0.692,17.461-15.408,31.055-32.87,30.363
		c-17.461-0.691-31.056-15.408-30.362-32.87c0.691-17.461,15.407-31.056,32.869-30.363
		C1542.52,916.919,1556.113,931.636,1555.421,949.098z"/>
	<path style="fill:#FFFFFF;" d="M935.318,975.037c-0.693,17.462-15.409,31.056-32.871,30.363
		c-17.461-0.691-31.055-15.408-30.363-32.869c0.692-17.461,15.408-31.057,32.87-30.364
		C922.415,942.859,936.01,957.576,935.318,975.037z"/>
	<path style="fill:#D1CF8E;" d="M902.213,1011.329c-20.702-0.82-36.878-18.331-36.057-39.034
		c0.82-20.701,18.33-36.876,39.032-36.056c20.702,0.821,36.878,18.33,36.057,39.033
		C940.425,995.975,922.916,1012.149,902.213,1011.329z M904.719,948.096c-14.165-0.562-26.146,10.505-26.707,24.67
		c-0.56,14.165,10.506,26.145,24.671,26.707c14.165,0.561,26.146-10.505,26.707-24.671
		C929.95,960.638,918.884,948.657,904.719,948.096z"/>
	<path style="fill:#D1CF8E;" d="M1522.316,985.389c-20.703-0.82-36.878-18.33-36.058-39.032
		c0.821-20.702,18.331-36.878,39.033-36.057c20.702,0.82,36.877,18.329,36.058,39.033
		C1560.529,970.034,1543.019,986.209,1522.316,985.389z M1524.822,922.155c-14.165-0.561-26.144,10.506-26.707,24.671
		c-0.562,14.165,10.506,26.146,24.671,26.707c14.164,0.562,26.146-10.506,26.707-24.671
		C1550.054,934.698,1538.987,922.717,1524.822,922.155z"/>
</g>
<g>
	<path style="fill:#E3A080;" d="M1195.942,1073.428c0,0,11.828,2.38,17.485,2.559c5.655,0.18,31.82-11.686,40.192-10.555
		c8.372,1.129,62.978,24.329,65.456,26.021c2.479,1.69-1.165,5.421-1.165,5.421l-125.361,1.485L1195.942,1073.428z"/>
	
		<rect x="1228.727" y="1006.747" transform="matrix(0.866 -0.5 0.5 0.866 -356.2676 755.6985)" style="fill:#4E9BDE;" width="6.715" height="71.875"/>
	<g>
		<g>
			<polygon style="fill:#696969;" points="818.38,1328.871 755.892,1630.984 742.128,1630.984 795.117,1328.222 			"/>
		</g>
	</g>
	<g>
		<g>
			<polygon style="fill:#696969;" points="886.551,1328.871 824.063,1630.984 810.299,1630.984 863.289,1328.222 			"/>
		</g>
	</g>
	<g>
		<g>
			<polygon style="fill:#696969;" points="996.808,1328.871 1059.296,1630.984 1073.06,1630.984 1020.069,1328.222 			"/>
		</g>
	</g>
	<g>
		<path style="fill:#E3A080;" d="M976.551,882.363c0,0,18.276,25.904,29.578,45.522c12.812,22.238,25.405,44.195,28.184,49.132
			c5.654,10.045,24.495,20.49,33.395,24.31c8.184,3.514,145.794,71.4,147.526,71.245s-14.687,27.192-14.687,27.192
			s-189.309-54.287-197.816-62.063c-8.51-7.775-33.769-43.172-44.104-57.756c-9.842-13.888-24.938-36.672-32.945-46.49
			c-8.949-10.976-27.729-48.533-3.852-67.265C952.336,842.259,969.207,871.373,976.551,882.363z"/>
	</g>
	<g>
		<g>
			<g>
				<path style="fill:#353A3D;" d="M1318.824,1552.951c0,0,29.63,9.348,42.756,12.33c13.124,2.982,59.338-6.028,64.866-2.777
					c5.528,3.25,7.054,17.334-0.217,20.499c-7.271,3.164-61.804,21.147-81.401,21.123c-19.599-0.027-52.657,15.366-60.963,14.54
					c-8.306-0.825-12.984-43.479-12.174-53.484C1272.501,1555.176,1318.824,1552.951,1318.824,1552.951z"/>
			</g>
		</g>
	</g>
	<g>
		<g>
			<g>
				<path style="fill:#81807E;" d="M1309.508,1537.319l9.316,15.632c0,0-35.334,15.142-47.133,12.23l-2.265-18.09L1309.508,1537.319
					z"/>
			</g>
		</g>
	</g>
	<g>
		<g>
			<g>
				<path style="fill:#353A3D;" d="M1194.521,1561.118c0,0,26.715,15.862,38.813,21.761c12.099,5.899,59.148,7.672,63.789,12.098
					s2.912,18.487-4.89,19.908c-7.801,1.422-64.997,6.488-84.073,1.991c-19.075-4.496-54.772,2.946-62.672,0.247
					c-7.898-2.699-2.723-45.295,0.351-54.852C1148.912,1552.714,1194.521,1561.118,1194.521,1561.118z"/>
			</g>
		</g>
	</g>
	<g>
		<g>
			<g>
				<path style="fill:#81807E;" d="M1195.217,1545.989l-0.696,15.129c0,0-37.856,6.681-48.682,1.153l1.678-16.581L1195.217,1545.989
					z"/>
			</g>
		</g>
	</g>
	<g>
		<path style="fill:#191B2B;" d="M1007.949,1158.485c0,0,112.579,25.653,139.084,33.401c28.783,8.415,75.303,23.68,80.993,28.471
			c6.276,5.285,13.201,4.811,4.179,44.005c-9.021,39.195-15.4,153.705-17.245,165.797c-2.753,18.05-10.174,122.792-10.174,122.792
			h-67.171c0,0-4.458-201.996,0-224.729c4.136-21.099-4.463-31.425-13.098-37.566c-8.636-6.142-36.167,0.192-191.286-26.578
			c-15.5-2.675-58.121-7.358-67.628-25.218c-17.178-32.271-18.935-77.688,14.874-105.461
			C914.287,1105.627,1007.949,1158.485,1007.949,1158.485z"/>
	</g>
	<g>
		<g>
			<path style="fill:#E2D2CA;" d="M1055.945,1331.317H786.693c0,0-18.753-0.43-31.313-55.984
				c-14.129-62.497-42.667-271.244-42.667-271.244s7.569-19.425,125.937-16.939l211.959,275.006
				C1050.609,1262.156,1057.841,1305.512,1055.945,1331.317z"/>
		</g>
	</g>
	<path style="fill:#EEA886;" d="M1176.205,1073.428c0,0,11.828,2.38,17.484,2.559c5.656,0.18,31.82-11.686,40.193-10.555
		c8.372,1.129,62.977,24.329,65.455,26.021c2.479,1.69-1.164,5.421-1.164,5.421l-125.362,1.485L1176.205,1073.428z"/>
	<g>
		<path style="fill:#292C47;" d="M876.301,1252.737c11.404,17.401,39.357,17.592,55.479,18.871
			c161.357,12.874,206.701,2.589,216.118,8.07c9.427,5.482,32.739,5.798,41.821,65.937c2.082,13.753,12.818,47.829,25.243,84.541
			c3.447,10.21,7.038,20.62,10.591,30.857c16.923,48.574,33.389,93.176,33.389,93.176l72.097-18.414c0,0-26.331-78.591-30.81-90.92
			c-7.134-19.627-38.574-145.665-52.346-190.476c-12.149-39.54-22.292-45.212-28.939-49.004
			c-12.502-7.134-59.051-15.252-86.098-23.896c-27.047-8.634-133.439-27.189-133.439-27.189s-127.333-40.541-148.644-0.918
			C845.111,1163.88,855.683,1221.307,876.301,1252.737z"/>
	</g>
	<g>
		<g>
			<rect x="1227.841" y="1101.245" style="fill:#E3E5FF;" width="25.12" height="529.739"/>
		</g>
	</g>
	<g>
		<g>
			<rect x="1213.275" y="1621.963" style="fill:#E3E5FF;" width="54.251" height="9.021"/>
		</g>
	</g>
	<g>
		<g>
			<rect x="1798.574" y="1101.245" style="fill:#E3E5FF;" width="25.119" height="529.739"/>
		</g>
	</g>
	<g>
		<g>
			<rect x="1784.008" y="1621.963" style="fill:#E3E5FF;" width="54.252" height="9.021"/>
		</g>
	</g>
	<g>
		<g>
			<rect x="1158.87" y="1092.371" style="fill:#D6985E;" width="694.779" height="17.748"/>
		</g>
	</g>
	<g>
		<path style="fill:#D44040;" d="M1010.823,1156.299l-164.152,33.404c0,0,0.5-48.376,1.279-103.301
			c0.779-54.926,16.718-99.995,20.648-131.402c13.41-107.138,107.198-130.78,107.198-130.78l31.721,24.577
			c0,0,17.248,50.591,17.372,79.473c0.063,15.033-7.236,45.787-14.472,74.045c-2.714,10.573-5.428,20.803-7.735,29.725
			c-3.399,13.036-5.958,23.329-6.487,27.883C991.111,1103.151,1010.823,1156.299,1010.823,1156.299z"/>
	</g>
	<g>
		<path style="fill:#EEA886;" d="M1032.149,828.821c0,0-1.222,2.711-3.033,6.92c-0.762,1.764-1.622,3.795-2.538,5.992
			c-0.705,1.679-1.441,3.456-2.187,5.291c-4.697,11.545-9.917,25.583-10.685,32.553c-1.439,13.023-37.923-55.344-37.923-55.344
			s17.128-38.701,29.166-84.477C1016.979,693.981,1032.149,828.821,1032.149,828.821z"/>
	</g>
	<path style="fill:#A77860;" d="M1032.149,828.821c0,0-1.222,2.711-3.033,6.92c-0.762,1.764-1.622,3.795-2.538,5.992
		c-24.421-18.148-27.75-35.81-25.198-37.779C1013.732,819.784,1032.149,828.821,1032.149,828.821z"/>
	<path style="fill:#EEA886;" d="M985.53,857.357c0,0,47.288,94.796,83.138,131.301c11.245,11.45,117.118,81.738,121.352,86.297
		c4.232,4.561-16.393,17.416-16.393,17.416s-129.047-55.97-137.475-61.532c-8.43-5.563-107.572-125.484-112.355-142.595
		c-4.782-17.108-1.019-33.859,16.444-41.364C964.751,836.346,985.53,857.357,985.53,857.357z"/>
	<g>
		<g>
			<path style="fill:#EEA886;" d="M1099.386,713.224c0,0,4.781,34.414,3.01,41.686c-1.773,7.271-5.104,12.315-6.238,20.939
				c-1.174,8.916,1.138,28.967-1.105,33.727c-2.711,5.753-14.585-0.844-19.036,8.634c-4.45,9.477-18.771,25.676-23.48,24.805
				c-12.095-2.237-52.411-33.008-52.721-43.271c-0.312-10.262-2.4-67.581-4.783-79.021c-2.383-11.439,97.509-43.509,100.932-25.503
				C1099.386,713.224,1099.386,713.224,1099.386,713.224z"/>
		</g>
	</g>
	<path style="fill:#353A3D;" d="M979.238,717.116c1.096-27.808,30.488-35.196,30.488-35.196s25.777-17.495,71.93-2.076
		c46.152,15.419,22.406,74.672,22.406,74.672s-31.123-13.65-46.198-13.905c0,0-3.548,10.4-3.777,17.288l-16.41-9.071
		c0,0,2.163-4.686-6.032-8.085c-8.195-3.4-24.897,46.022-43.708,52.797c0,0,1.048-3.589,0.009-7.602l0,0h-0.001
		c-1.655-6.387-4.048-16.967-5.354-28.938C979.813,739.961,978.678,731.358,979.238,717.116z"/>
	<g>
		<g>
			<path style="fill:#EEA886;" d="M1041.9,749.544c0,0-1.771-19.482-20.438-12.217c-13.575,5.285-10.045,38.326,1.003,41.165
				C1033.512,781.33,1042.388,766.281,1041.9,749.544z"/>
		</g>
	</g>
	<path style="fill:#9C2F2F;" d="M1010.418,1002.315c-2.714,10.573-5.428,20.803-7.735,29.725
		c-18.184-21.615-50.341-101.056-50.808-102.241C956.74,937.876,1007.549,998.883,1010.418,1002.315z"/>
	<path style="fill:#D44040;" d="M1009.131,897.563c0,0-18.207-76.868-70.45-53.639c-52.242,23.227,10.527,91.066,10.527,91.066
		L1009.131,897.563z"/>
	<g>
		<g>
			<path style="fill:#EDEBE7;" d="M1361.189,988.454v-3.56h-22.725v3.56h1.367v78.707c0,0-0.396,9.995,9.994,9.995
				c10.393,0,9.996-9.995,9.996-9.995v-78.707H1361.189z"/>
			<path style="fill:#EDEBE7;" d="M1388.372,988.454v-3.56h-22.725v3.56h1.366v78.707c0,0-0.396,9.995,9.995,9.995
				c10.392,0,9.996-9.995,9.996-9.995v-78.707H1388.372z"/>
			<path style="fill:#EDEBE7;" d="M1415.554,988.454v-3.56h-22.725v3.56h1.367v78.707c0,0-0.396,9.995,9.995,9.995
				c10.392,0,9.996-9.995,9.996-9.995v-78.707H1415.554z"/>
			<path style="fill:#4E9BDE;" d="M1342.893,1011.915v54.605c0,0-0.275,6.934,6.934,6.934s6.936-6.934,6.936-6.934v-54.605H1342.893
				z"/>
			<path style="fill:#DE4E74;" d="M1370.075,1021.219v46.349c0,0-0.274,5.886,6.934,5.886c7.209,0,6.936-5.886,6.936-5.886v-46.349
				H1370.075z"/>
			<path style="fill:#D2DE4E;" d="M1397.257,1005.281v60.49c0,0-0.274,7.682,6.934,7.682c7.209,0,6.935-7.682,6.935-7.682v-60.49
				H1397.257z"/>
		</g>
		<rect x="1338.465" y="993.731" style="fill:#9E9E9C;" width="113.829" height="5.329"/>
		<rect x="1440.207" y="961.893" style="fill:#9E9E9C;" width="6.498" height="123.72"/>
		<rect x="1429.031" y="1085.612" style="fill:#9E9E9C;" width="28.851" height="6.759"/>
		<g>
			<g>
				
					<rect x="1484.319" y="988.305" transform="matrix(0.8408 0.5414 -0.5414 0.8408 778.842 -649.8628)" style="fill:#9E9E9C;" width="19.701" height="21.547"/>
				
					<rect x="1541.424" y="899.629" transform="matrix(0.8408 0.5414 -0.5414 0.8408 739.8746 -694.8748)" style="fill:#9E9E9C;" width="19.701" height="21.546"/>
				
					<rect x="1548.508" y="893.021" transform="matrix(0.8408 0.5414 -0.5414 0.8408 736.9887 -698.2377)" style="fill:#9E9E9C;" width="14.042" height="21.547"/>
				
					<rect x="1511.001" y="897.018" transform="matrix(0.8408 0.5414 -0.5414 0.8408 758.6618 -673.2222)" style="fill:#EBEBEB;" width="25.569" height="112.14"/>
			</g>
			<path style="fill:#9E9E9C;" d="M1532.045,952.059c0,4.562-3.697,8.259-8.259,8.259c-4.563,0-8.261-3.697-8.261-8.259
				c0-4.563,3.698-8.261,8.261-8.261C1528.348,943.798,1532.045,947.496,1532.045,952.059z"/>
			<g>
				<path style="fill:#EBEBEB;" d="M1506.766,1060.629l-4.406-10.092c20.797-9.083,32.637-20.473,35.193-33.854
					c3.92-20.524-14.126-38.937-14.316-39.13l6.099-9.469c0.945,0.955,24.033,24.5,19.035,50.664
					C1545.092,1035.915,1531.094,1050.005,1506.766,1060.629z"/>
			</g>
			
				<rect x="1480.756" y="1045.26" transform="matrix(0.8859 0.4639 -0.4639 0.8859 658.822 -573.6967)" style="fill:#EBEBEB;" width="29.275" height="13.766"/>
			
				<rect x="1471.141" y="1036.343" transform="matrix(0.8859 0.4639 -0.4639 0.8859 651.0556 -570.8535)" style="fill:#9E9E9C;" width="29.276" height="2.982"/>
			<rect x="1480.932" y="1076.921" style="fill:#9E9E9C;" width="83.285" height="15.45"/>
			<polygon style="fill:#EBEBEB;" points="1533.932,1076.921 1500.892,1076.921 1510.528,1047.668 1533.932,1043.908 			"/>
			<path style="fill:#9E9E9C;" d="M1528.932,1057.432c0,4.588-3.72,8.308-8.308,8.308c-4.587,0-8.308-3.72-8.308-8.308
				s3.721-8.307,8.308-8.307C1525.212,1049.125,1528.932,1052.844,1528.932,1057.432z"/>
		</g>
	</g>
</g>
<g>
	<g>
		
			<rect x="1868.846" y="1349.413" transform="matrix(0.9977 -0.0674 0.0674 0.9977 -93.0164 129.3281)" style="fill:#81A358;" width="2.201" height="187.239"/>
	</g>
	<g>
		
			<rect x="1828.019" y="1025.529" transform="matrix(0.9982 -0.0604 0.0604 0.9982 -73.8799 112.7292)" style="fill:#81A358;" width="2.2" height="507.606"/>
	</g>
	<g>
		<rect x="1857.196" y="952.435" style="fill:#81A358;" width="2.201" height="591.086"/>
	</g>
	<g>
		
			<rect x="1705.539" y="1361.195" transform="matrix(0.0226 -0.9997 0.9997 0.0226 478.006 3213.5337)" style="fill:#81A358;" width="353.987" height="2.201"/>
	</g>
	<g>
		<path style="fill:#71A334;" d="M1857.008,1073.344c0,0-61.443-52.396-43.207-104.688c18.236-52.293,108.263-23.991,79.662,70.352
			C1893.463,1039.007,1884.165,1063.34,1857.008,1073.344z"/>
	</g>
	<g>
		<polygon style="fill:#60892C;" points="1875.774,1046.982 1873.58,1046.797 1878.339,990.694 1881.254,982.368 		"/>
	</g>
	<g>
		<polygon style="fill:#60892C;" points="1845.538,1048.327 1843.337,1048.282 1845.132,959.613 1847.048,973.741 		"/>
	</g>
	<g>
		<polygon style="fill:#60892C;" points="1834.172,1033.875 1823.464,973.033 1827.342,982.368 1836.34,1033.492 		"/>
	</g>
	<g>
		<path style="fill:#86BC44;" d="M1818.178,1159.343c0,0-53.25-68.924-25.531-117.632c27.72-48.708,206.115-8.443,125.465,167.335
			c-80.65,175.779-142.971,57.55-142.971,57.55L1818.178,1159.343z"/>
	</g>
	<g>
		<polygon style="fill:#7BA840;" points="1864.82,1284.878 1862.693,1284.313 1911.076,1102.275 1916.844,1089.148 		"/>
	</g>
	<g>
		<polygon style="fill:#7BA840;" points="1849.521,1267.557 1847.321,1267.456 1856.638,1062.286 1859.366,1050.712 		"/>
	</g>
	<g>
		<polygon style="fill:#7BA840;" points="1828.021,1200.266 1818.878,1053.562 1821.851,1065.872 1830.218,1200.128 		"/>
	</g>
	<g>
		<path style="fill:#70A333;" d="M1858.297,1221.311c0,0-8.023-118.255-75.862-74.693c-67.839,43.561-84.616,214.32,75.862,266.209
			V1221.311z"/>
	</g>
	<g>
		<polygon style="fill:#699331;" points="1868.93,1334.988 1800.23,1168.981 1796.804,1154.945 1870.963,1334.146 		"/>
	</g>
	<g>
		<path style="fill:#699331;" d="M1880.118,1346.699c-6.151-0.224-16.296-7.894-31.011-23.45
			c-11.469-12.124-25.589-28.952-41.969-50.02c-27.869-35.846-44.965-60.669-45.215-61.03l-6.196-12.629
			c0.249,0.36,25.321,36.517,53.155,72.314c46.307,59.559,64.34,72.362,71.316,72.614L1880.118,1346.699z"/>
	</g>
	<g>
		<path style="fill:#699331;" d="M1890.393,1368.998c-14.141,0-43.07-15.713-85.985-46.705
			c-31.855-23.005-59.975-46.311-60.255-46.543l8.812,4.341c10.703,8.687,104.679,86.706,137.429,86.706V1368.998z"/>
	</g>
	<g>
		<path style="fill:#699331;" d="M1794.459,1361.436c1.685,0.92,11.945,2.623,38.418,7.184c14.751,2.542,50.728,8.493,66.178,8.869
			l-0.053,2.2c-15.806-0.384-52.488-6.476-67.527-9.076c-12.21-2.112-24.594-4.411-33.975-6.307
			c-15.001-3.031-15.532-3.592-15.883-3.962L1794.459,1361.436z"/>
	</g>
	<g>
		<path style="fill:#B1D045;" d="M1880.068,1480.747c0,0-56.056-59.067-42.926-149.817c13.131-90.75,115.252-90.65,114.523-2.49
			C1950.937,1416.599,1932.456,1441.118,1880.068,1480.747z"/>
	</g>
	<g>
		<polygon style="fill:#9EB24E;" points="1884.471,1473.592 1882.532,1473.065 1910.508,1287.529 1914.479,1275.056 
			1886.524,1461.41 1940.297,1308.25 1940.709,1313.887 		"/>
	</g>
	<g>
		<polygon style="fill:#9EB24E;" points="1879.498,1474.986 1849.468,1331.42 1849.213,1320.365 1878.996,1461.684 
			1871.029,1282.743 1874.278,1301.033 1881.527,1474.413 		"/>
	</g>
	<linearGradient id="SVGID_1_" gradientUnits="userSpaceOnUse" x1="1783.1641" y1="1589.2788" x2="1933.4297" y2="1589.2788">
		<stop  offset="0" style="stop-color:#BAD0DE"/>
		<stop  offset="1" style="stop-color:#F5F2FF"/>
	</linearGradient>
	<polygon style="fill:url(#SVGID_1_);" points="1933.43,1532.738 1897.946,1645.819 1818.649,1645.819 1783.164,1532.738 	"/>
	<defs>
		<filter id="Adobe_OpacityMaskFilter" filterUnits="userSpaceOnUse" x="1783.164" y="1532.738" width="150.266" height="113.081">
			<feFlood  style="flood-color:white;flood-opacity:1" result="back"/>
			<feBlend  in="SourceGraphic" in2="back" mode="normal"/>
		</filter>
	</defs>
	
		<mask maskUnits="userSpaceOnUse" x="1783.164" y="1532.738" width="150.266" height="113.081" id="SVGID_00000040548413193403236130000008945599921826514323_">
		<g style="filter:url(#Adobe_OpacityMaskFilter);">
			<defs>
				
					<filter id="Adobe_OpacityMaskFilter_00000140013438804549565170000008346317200693244849_" filterUnits="userSpaceOnUse" x="1783.164" y="1532.738" width="150.266" height="113.081">
					<feFlood  style="flood-color:white;flood-opacity:1" result="back"/>
					<feBlend  in="SourceGraphic" in2="back" mode="normal"/>
				</filter>
			</defs>
			
				<mask maskUnits="userSpaceOnUse" x="1783.164" y="1532.738" width="150.266" height="113.081" id="SVGID_00000040548413193403236130000008945599921826514323_">
				<g style="filter:url(#Adobe_OpacityMaskFilter_00000140013438804549565170000008346317200693244849_);">
				</g>
			</mask>
			
				<linearGradient id="SVGID_00000048464238843864453610000011855529817429130114_" gradientUnits="userSpaceOnUse" x1="1783.1641" y1="1589.2788" x2="1933.4297" y2="1589.2788">
				<stop  offset="0" style="stop-color:#FFFFFF"/>
				<stop  offset="0.9948" style="stop-color:#000000"/>
			</linearGradient>
			
				<path style="mask:url(#SVGID_00000040548413193403236130000008945599921826514323_);fill:url(#SVGID_00000048464238843864453610000011855529817429130114_);" d="
				M1933.43,1532.738c0,0-78.117,12.321-78.117,113.081h-36.664l-35.484-113.081H1933.43z"/>
		</g>
	</mask>
	
		<linearGradient id="SVGID_00000125580177124118774840000002654396195131636649_" gradientUnits="userSpaceOnUse" x1="1783.1641" y1="1589.2788" x2="1933.4297" y2="1589.2788">
		<stop  offset="0" style="stop-color:#9FA0AD"/>
		<stop  offset="0.9948" style="stop-color:#55B5FF"/>
	</linearGradient>
	<path style="fill:url(#SVGID_00000125580177124118774840000002654396195131636649_);" d="M1933.43,1532.738
		c0,0-78.117,12.321-78.117,113.081h-36.664l-35.484-113.081H1933.43z"/>
	<path style="fill:#454342;" d="M1805.325,1654.655l0.001-0.009c0.003-0.019,0.007-0.037,0.011-0.057L1805.325,1654.655z"/>
</g>
<g>
	<g>
		<path style="fill:#FFDC7D;" d="M916.223,564.268c-8.813,2.506-17.953,2.25-26.051-0.775c-9.188-3.434-15.95-10.001-19.06-18.504
			c-7.341-16.292-18.914-31.658-27.571-41.923c-26.489-8.796-46.798-29.964-54.431-56.809
			c-12.678-44.588,13.283-91.177,57.872-103.854c44.589-12.678,91.178,13.283,103.856,57.872
			c6.901,24.274,2.629,50.003-11.714,70.773c0.007,18.173,1.864,34.126,5.528,47.432c6.196,17.441-5.168,37.52-25.395,44.812
			C918.252,563.653,917.238,563.979,916.223,564.268z M848.863,349.018c-40.94,11.641-64.777,54.418-53.137,95.359
			c7.091,24.94,26.102,44.546,50.854,52.445l0.938,0.299l0.638,0.749c9.027,10.621,21.437,26.947,29.282,44.414l0.099,0.243
			c2.391,6.634,7.733,11.791,15.043,14.522c7.509,2.806,16.159,2.728,24.346-0.229c16.708-6.023,26.224-22.234,21.211-36.137
			l-0.044-0.124l-0.035-0.127c-3.925-14.196-5.879-31.182-5.809-50.484l0.004-1.089l0.631-0.889
			c13.636-19.215,17.769-43.203,11.34-65.814C932.582,361.215,889.804,337.378,848.863,349.018z"/>
	</g>
	<g>
		<polygon style="fill:#FFDC7D;" points="891.695,542.746 849.714,460.574 873.099,468.804 879.675,452.378 893.541,460.412 
			905.068,440.053 926.579,529.915 919.89,531.518 902.446,458.645 896.104,469.847 883.104,462.314 877.033,477.479 
			863.672,472.777 897.819,539.617 		"/>
	</g>
	<g>
		
			<rect x="890.62" y="554.708" transform="matrix(0.9407 -0.3391 0.3391 0.9407 -137.6423 345.7078)" style="fill:#FFDC7D;" width="59.629" height="24.03"/>
	</g>
	<g>
		
			<rect x="875.192" y="531.181" transform="matrix(0.9407 -0.3391 0.3391 0.9407 -132.4938 342.7636)" style="fill:#FFDC7D;" width="78.806" height="38.681"/>
	</g>
</g>
<g>
	
		<linearGradient id="SVGID_00000092432004598383457670000005609159534431656351_" gradientUnits="userSpaceOnUse" x1="1001.7022" y1="1639.8896" x2="1001.7022" y2="1605.7413">
		<stop  offset="0" style="stop-color:#FF9F55"/>
		<stop  offset="1" style="stop-color:#FFD255"/>
	</linearGradient>
	<path style="fill:url(#SVGID_00000092432004598383457670000005609159534431656351_);" d="M1066.311,1642.714H945.882
		c-4.854,0-8.788-3.935-8.788-8.787v-14.266c0-4.853,3.935-8.787,8.788-8.787h120.429V1642.714z"/>
	<path style="fill:#FF9F55;" d="M1086.994,1614.152v25.285h2.112v3.277h-87.292c-4.853,0-8.788-3.934-8.788-8.787v-14.266
		c0-4.853,3.935-8.787,8.788-8.787h87.292v3.277H1086.994z"/>
	<path style="fill:#EFF7FE;" d="M1086.992,1639.438h-78.734c-4.854,0-8.787-3.936-8.787-8.789v-7.71
		c0-4.853,3.934-8.787,8.787-8.787h78.734V1639.438z"/>
	
		<linearGradient id="SVGID_00000000193898897276899780000006913416414517799563_" gradientUnits="userSpaceOnUse" x1="1000.498" y1="1562.8936" x2="1000.498" y2="1610.165">
		<stop  offset="0" style="stop-color:#40D5E6"/>
		<stop  offset="1" style="stop-color:#5577FF"/>
	</linearGradient>
	<path style="fill:url(#SVGID_00000000193898897276899780000006913416414517799563_);" d="M1071.938,1610.872H940.099
		c-6.098,0-11.04-4.942-11.04-11.04v-14.946c0-6.098,4.942-11.042,11.04-11.042h131.839V1610.872z"/>
	<path style="fill:#5284FC;" d="M1095.323,1577.656v29.407h1.819v3.812h-71.704c-6.099,0-11.042-4.943-11.042-11.042v-14.946
		c0-6.098,4.943-11.041,11.042-11.041h71.704v3.811H1095.323z"/>
	<path style="fill:#EFF7FE;" d="M1095.321,1607.062h-64.334c-6.099,0-11.041-4.943-11.041-11.042v-7.323
		c0-6.098,4.942-11.041,11.041-11.041h64.334V1607.062z"/>
	
		<linearGradient id="SVGID_00000112627331791026420010000002212440827047239055_" gradientUnits="userSpaceOnUse" x1="1033.0303" y1="1565.1627" x2="1033.0303" y2="1529.8208">
		<stop  offset="0" style="stop-color:#FF9F55"/>
		<stop  offset="1" style="stop-color:#FFD255"/>
	</linearGradient>
	<path style="fill:url(#SVGID_00000112627331791026420010000002212440827047239055_);" d="M976.954,1573.838h100.203
		c6.599,0,11.949-5.351,11.949-11.95v-21.497c0-6.601-5.351-11.95-11.949-11.95H976.954V1573.838z"/>
	<path style="fill:#FF9F55;" d="M959.003,1533.114v36.053h-1.833v4.673h71.44c6.6,0,11.949-5.35,11.949-11.949v-21.5
		c0-6.599-5.35-11.949-11.949-11.949h-71.44v4.673H959.003z"/>
	<path style="fill:#EFF7FE;" d="M959.005,1569.164h63.176c6.56,0,11.877-5.316,11.877-11.877v-12.297
		c0-6.56-5.317-11.877-11.877-11.877h-63.176V1569.164z"/>
	
		<linearGradient id="SVGID_00000095339034571341069010000004228068863813853326_" gradientUnits="userSpaceOnUse" x1="992.5826" y1="1470.1411" x2="992.5826" y2="1509.8451">
		<stop  offset="0" style="stop-color:#40D5E6"/>
		<stop  offset="1" style="stop-color:#5577FF"/>
	</linearGradient>
	<path style="fill:url(#SVGID_00000095339034571341069010000004228068863813853326_);" d="M1051.989,1528.43H945.738
		c-6.938,0-12.563-5.625-12.563-12.563v-20.272c0-6.938,5.624-12.563,12.563-12.563h106.251V1528.43z"/>
	<path style="fill:#5284FC;" d="M1071.007,1487.707v36.053h1.941v4.672h-75.78c-6.939,0-12.563-5.624-12.563-12.561v-20.275
		c0-6.938,5.624-12.562,12.563-12.562h75.78v4.673H1071.007z"/>
	<path style="fill:#EFF7FE;" d="M1071.004,1523.758h-67.295c-6.909,0-12.51-5.602-12.51-12.51v-11.033
		c0-6.909,5.601-12.51,12.51-12.51h67.295V1523.758z"/>
	
		<linearGradient id="SVGID_00000172411566725436911700000004856269590334927544_" gradientUnits="userSpaceOnUse" x1="1022.5508" y1="1450.5646" x2="1022.5508" y2="1482.3219">
		<stop  offset="0" style="stop-color:#40D5E6"/>
		<stop  offset="1" style="stop-color:#5577FF"/>
	</linearGradient>
	<path style="fill:url(#SVGID_00000172411566725436911700000004856269590334927544_);" d="M1081.957,1483.021H970.941
		c-4.307,0-7.797-3.491-7.797-7.798v-18.761c0-4.306,3.49-7.797,7.797-7.797h111.016V1483.021z"/>
	<path style="fill:#5284FC;" d="M1100.974,1452.202v27.284h1.942v3.535h-80.546c-4.306,0-7.797-3.49-7.797-7.797v-18.761
		c0-4.307,3.491-7.797,7.797-7.797h80.546v3.535H1100.974z"/>
	<path style="fill:#EFF7FE;" d="M1100.972,1479.484h-72.677c-4.307,0-7.797-3.491-7.797-7.798v-11.688
		c0-4.307,3.49-7.797,7.797-7.797h72.677V1479.484z"/>
</g>
</svg>
